<svg width="209" height="138" viewBox="0 0 209 138" fill="none" xmlns="http://www.w3.org/2000/svg">
<path d="M116.703 64.3943C117.936 61.3936 120.859 59.4344 124.103 59.4344H175.25C180.885 59.4344 184.754 65.1052 182.699 70.3523L173.279 94.4003C172.078 97.4657 169.122 99.4824 165.83 99.4824H114.224C108.532 99.4824 104.661 93.707 106.824 88.4424L116.703 64.3943Z" fill="white"/>
<path d="M12.9687 35.2386C14.4529 31.3746 18.1644 28.8244 22.3037 28.8244H106.419C110.542 28.8244 114.242 26.2945 115.738 22.4528L122 6.37156C123.495 2.52994 127.196 0 131.318 0H156.494H194.141C201.147 0 205.981 7.01776 203.485 13.5637L195.935 33.3567C194.457 37.2323 190.74 39.793 186.592 39.793H114.782C110.701 39.793 107.029 42.2727 105.505 46.0583L71.0122 131.735C69.4882 135.52 65.8167 138 61.7358 138H40.6042C33.6144 138 28.7811 131.012 31.2473 124.472L47.0633 82.5283C49.5295 75.988 44.6962 69 37.7064 69H14.5536C7.53767 69 2.70288 61.9636 5.21868 55.4142L12.9687 35.2386Z" fill="white"/>
</svg>
